<svg width="284" height="100" viewBox="0 0 284 100" fill="none" xmlns="http://www.w3.org/2000/svg">
<g clip-path="url(#clip0_218:382)">
<ellipse cx="90.2399" cy="-114.594" rx="233.13" ry="214.579" transform="rotate(-5.08744 90.2399 -114.594)" fill="#E09479"/>
<path d="M75.7453 38C75.6516 37.6094 75.4406 37.3984 75.1125 37.3672H73.5187V24.5703H73.9172C75.0422 24.5703 75.8391 25.0703 76.3078 26.0703C76.4016 26.2891 76.5031 26.5469 76.6125 26.8438L77.3391 28.9531H78.0422L77.9484 23.9375H65.8078L65.7141 28.9531H66.4172L67.1437 26.8438C67.4875 25.8438 67.9328 25.1875 68.4797 24.875C68.8547 24.6719 69.3078 24.5703 69.8391 24.5703H70.2375V37.3672H68.0109V38H75.7453ZM96.6578 38C96.6578 37.625 96.5562 37.4219 96.3531 37.3906C96.275 37.375 96.1891 37.3672 96.0953 37.3672H95.3922L89.8609 23.9375H88.1266L82.9937 37.3672H81.4937V38H85.8062C85.8062 37.625 85.7047 37.4219 85.5016 37.3906C85.4234 37.375 85.3375 37.3672 85.2437 37.3672H83.9312L85.6187 32.8672H90.2828L92.0406 37.3672H90.3766V38H96.6578ZM90.0016 32.1641H85.9L87.9156 26.7734L90.0016 32.1641ZM111.875 34.0859C111.875 32.7891 111.164 31.6797 109.742 30.7578C109.539 30.6484 108.719 30.2109 107.281 29.4453C105.969 28.7578 105.148 28.0781 104.82 27.4062C104.664 27.0781 104.586 26.7344 104.586 26.375C104.586 25.4531 105.031 24.8438 105.922 24.5469C106.219 24.4531 106.531 24.4062 106.859 24.4062C108.141 24.4062 109.102 24.8906 109.742 25.8594C110.133 26.4688 110.336 27.1953 110.352 28.0391H111.266V23.7969C110.828 23.7969 110.57 23.9453 110.492 24.2422C110.477 24.3516 110.469 24.4766 110.469 24.6172C109.172 24.0078 107.805 23.7031 106.367 23.7031C104.477 23.7031 103.055 24.1953 102.102 25.1797C101.492 25.8203 101.188 26.5781 101.188 27.4531C101.188 28.75 101.93 29.8594 103.414 30.7812C103.602 30.9062 104.445 31.3516 105.945 32.1172C107.289 32.8203 108.125 33.5 108.453 34.1562C108.594 34.4688 108.664 34.7891 108.664 35.1172C108.664 36.2422 108.164 36.9922 107.164 37.3672C106.805 37.4922 106.406 37.5547 105.969 37.5547C104.312 37.5547 103.148 36.7969 102.477 35.2812C102.195 34.6406 102.023 33.9062 101.961 33.0781H101.047V38.0469C101.469 38.0469 101.719 37.9219 101.797 37.6719C101.828 37.5156 101.844 37.3047 101.844 37.0391C103.047 37.8359 104.5 38.2344 106.203 38.2344C108.188 38.2344 109.711 37.7266 110.773 36.7109C111.508 35.9922 111.875 35.1172 111.875 34.0859ZM126.319 38C126.225 37.6094 126.014 37.3984 125.686 37.3672H124.092V24.5703H124.491C125.616 24.5703 126.412 25.0703 126.881 26.0703C126.975 26.2891 127.077 26.5469 127.186 26.8438L127.912 28.9531H128.616L128.522 23.9375H116.381L116.287 28.9531H116.991L117.717 26.8438C118.061 25.8438 118.506 25.1875 119.053 24.875C119.428 24.6719 119.881 24.5703 120.412 24.5703H120.811V37.3672H118.584V38H126.319ZM142.637 38C142.544 37.6094 142.333 37.3984 142.005 37.3672H140.645V31.8828L143.833 25.2266C144.13 24.8047 144.52 24.5859 145.005 24.5703C145.395 24.4766 145.606 24.2656 145.637 23.9375H141.512V24.5703H143.387L140.223 31.0625L136.802 24.5703H138.583V23.9375H132.02V24.5703H133.122L137.364 32.0469V37.3672H135.372V38H142.637Z" fill="white"/>
<path d="M84.599 57.2959C83.1518 56.8799 82.0971 56.3701 81.435 55.7666C80.7787 55.1572 80.4506 54.4072 80.4506 53.5166C80.4506 52.5088 80.852 51.6768 81.6547 51.0205C82.4633 50.3584 83.5121 50.0273 84.8012 50.0273C85.6801 50.0273 86.4623 50.1973 87.1479 50.5371C87.8393 50.877 88.3725 51.3457 88.7475 51.9434C89.1283 52.541 89.3188 53.1943 89.3188 53.9033H87.6225C87.6225 53.1299 87.3764 52.5234 86.8842 52.084C86.392 51.6387 85.6977 51.416 84.8012 51.416C83.9691 51.416 83.3188 51.6006 82.85 51.9697C82.3871 52.333 82.1557 52.8398 82.1557 53.4902C82.1557 54.0117 82.3754 54.4541 82.8148 54.8174C83.2602 55.1748 84.0131 55.5029 85.0736 55.8018C86.14 56.1006 86.9721 56.4316 87.5697 56.7949C88.1732 57.1523 88.6186 57.5713 88.9057 58.0518C89.1986 58.5322 89.3451 59.0977 89.3451 59.748C89.3451 60.7852 88.9408 61.6172 88.1322 62.2441C87.3236 62.8652 86.2426 63.1758 84.8891 63.1758C84.0102 63.1758 83.1898 63.0088 82.4281 62.6748C81.6664 62.335 81.0775 61.8721 80.6615 61.2861C80.2514 60.7002 80.0463 60.0352 80.0463 59.291H81.7426C81.7426 60.0645 82.0268 60.6768 82.5951 61.1279C83.1693 61.5732 83.934 61.7959 84.8891 61.7959C85.7797 61.7959 86.4623 61.6143 86.9369 61.251C87.4115 60.8877 87.6488 60.3926 87.6488 59.7656C87.6488 59.1387 87.4291 58.6553 86.9896 58.3154C86.5502 57.9697 85.7533 57.6299 84.599 57.2959ZM103.458 51.5918H99.3445V63H97.6658V51.5918H93.5613V50.2031H103.458V51.5918ZM115.69 57.085H110.144V61.6201H116.586V63H108.456V50.2031H116.498V51.5918H110.144V55.7051H115.69V57.085ZM123.474 57.9902V63H121.787V50.2031H126.506C127.907 50.2031 129.003 50.5605 129.794 51.2754C130.59 51.9902 130.989 52.9365 130.989 54.1143C130.989 55.3564 130.599 56.3145 129.82 56.9883C129.046 57.6562 127.936 57.9902 126.489 57.9902H123.474ZM123.474 56.6104H126.506C127.409 56.6104 128.1 56.3994 128.581 55.9775C129.061 55.5498 129.301 54.9346 129.301 54.1318C129.301 53.3701 129.061 52.7607 128.581 52.3037C128.1 51.8467 127.441 51.6094 126.603 51.5918H123.474V56.6104Z" fill="white"/>
</g>
<defs>
<clipPath id="clip0_218:382">
<rect width="284" height="100" fill="white"/>
</clipPath>
</defs>
</svg>
