<svg width="331" height="90" viewBox="0 0 331 90" fill="none" xmlns="http://www.w3.org/2000/svg">
<g clip-path="url(#clip0)">
<path d="M104.13 80.158C232.884 80.158 337.26 -15.9123 337.26 -134.421C337.26 -252.93 232.884 -349 104.13 -349C-24.6241 -349 -129 -252.93 -129 -134.421C-129 -15.9123 -24.6241 80.158 104.13 80.158Z" fill="#FBB1BD"/>
<path d="M84.4521 29.2589C84.4521 27.9621 83.7412 26.8527 82.3193 25.9308C82.1162 25.8214 81.2959 25.3839 79.8584 24.6183C78.5459 23.9308 77.7256 23.2511 77.3974 22.5792C77.2412 22.2511 77.1631 21.9074 77.1631 21.548C77.1631 20.6261 77.6084 20.0168 78.499 19.7199C78.7959 19.6261 79.1084 19.5792 79.4365 19.5792C80.7177 19.5792 81.6787 20.0636 82.3193 21.0324C82.7099 21.6418 82.9131 22.3683 82.9287 23.2121H83.8427V18.9699C83.4052 18.9699 83.1474 19.1183 83.0693 19.4152C83.0537 19.5246 83.0459 19.6496 83.0459 19.7902C81.749 19.1808 80.3818 18.8761 78.9443 18.8761C77.0537 18.8761 75.6318 19.3683 74.6787 20.3527C74.0693 20.9933 73.7646 21.7511 73.7646 22.6261C73.7646 23.923 74.5068 25.0324 75.9912 25.9542C76.1787 26.0792 77.0224 26.5246 78.5224 27.2902C79.8662 27.9933 80.7021 28.673 81.0302 29.3292C81.1709 29.6418 81.2412 29.9621 81.2412 30.2902C81.2412 31.4152 80.7412 32.1652 79.7412 32.5402C79.3818 32.6652 78.9834 32.7277 78.5459 32.7277C76.8896 32.7277 75.7256 31.9699 75.0537 30.4542C74.7724 29.8136 74.6006 29.0792 74.5381 28.2511H73.624V33.2199C74.0459 33.2199 74.2959 33.0949 74.374 32.8449C74.4052 32.6886 74.4209 32.4777 74.4209 32.2121C75.624 33.0089 77.0771 33.4074 78.7802 33.4074C80.7646 33.4074 82.2881 32.8996 83.3506 31.8839C84.0849 31.1652 84.4521 30.2902 84.4521 29.2589ZM103.794 33.173L108.27 19.7433H109.442V19.1105H105.576V19.7433H107.45L104.146 29.7746L100.513 19.7199L102.388 19.7433V19.1105H96.9506L98.7318 23.7277L96.4349 29.9855L92.7552 19.7433H94.6302V19.1105H88.2787V19.7433H89.4506L93.9506 31.3683C94.3256 32.3214 94.6537 32.8761 94.9349 33.0324C95.1068 33.1261 95.3256 33.173 95.5912 33.173H96.0599L99.1537 24.7824L101.685 31.3683C102.06 32.3214 102.388 32.8761 102.669 33.0324C102.841 33.1261 103.06 33.173 103.326 33.173H103.794ZM124.824 23.6105L124.73 19.1105H113.011V19.7433H114.886V32.5402H113.011V33.173H124.73L124.824 28.673H124.144L123.605 30.2902C123.199 31.4933 122.55 32.2121 121.66 32.4464C121.394 32.5089 121.113 32.5402 120.816 32.5402H118.167V26.2824H122.667V25.5792H118.167V19.7433H120.816C122.097 19.7433 122.98 20.3527 123.464 21.5714C123.527 21.7121 123.581 21.8527 123.628 21.9933L124.144 23.6105H124.824ZM141.26 23.6105L141.166 19.1105H129.447V19.7433H131.322V32.5402H129.447V33.173H141.166L141.26 28.673H140.58L140.041 30.2902C139.635 31.4933 138.986 32.2121 138.095 32.4464C137.83 32.5089 137.549 32.5402 137.252 32.5402H134.603V26.2824H139.103V25.5792H134.603V19.7433H137.252C138.533 19.7433 139.416 20.3527 139.9 21.5714C139.963 21.7121 140.017 21.8527 140.064 21.9933L140.58 23.6105H141.26ZM155.797 33.173C155.703 32.7824 155.492 32.5714 155.164 32.5402H153.57V19.7433H153.969C155.094 19.7433 155.891 20.2433 156.36 21.2433C156.453 21.4621 156.555 21.7199 156.664 22.0168L157.391 24.1261H158.094L158 19.1105H145.86L145.766 24.1261H146.469L147.195 22.0168C147.539 21.0168 147.985 20.3605 148.531 20.048C148.906 19.8449 149.36 19.7433 149.891 19.7433H150.289V32.5402H148.063V33.173H155.797Z" fill="white"/>
<path d="M94.4892 52.4689C93.042 52.0529 91.9873 51.5431 91.3252 50.9396C90.6689 50.3302 90.3408 49.5802 90.3408 48.6896C90.3408 47.6818 90.7422 46.8498 91.5449 46.1935C92.3535 45.5314 93.4023 45.2003 94.6914 45.2003C95.5703 45.2003 96.3525 45.3703 97.0381 45.7101C97.7295 46.05 98.2627 46.5187 98.6377 47.1164C99.0185 47.714 99.209 48.3673 99.209 49.0763H97.5127C97.5127 48.3029 97.2666 47.6964 96.7744 47.257C96.2822 46.8117 95.5879 46.589 94.6914 46.589C93.8593 46.589 93.209 46.7736 92.7402 47.1427C92.2773 47.506 92.0459 48.0128 92.0459 48.6632C92.0459 49.1847 92.2656 49.6271 92.705 49.9904C93.1504 50.3478 93.9033 50.6759 94.9638 50.9748C96.0302 51.2736 96.8623 51.6046 97.4599 51.9679C98.0634 52.3253 98.5088 52.7443 98.7959 53.2248C99.0888 53.7052 99.2353 54.2707 99.2353 54.921C99.2353 55.9582 98.831 56.7902 98.0224 57.4171C97.2138 58.0382 96.1328 58.3488 94.7793 58.3488C93.9004 58.3488 93.08 58.1818 92.3183 57.8478C91.5566 57.508 90.9677 57.0451 90.5517 56.4591C90.1416 55.8732 89.9365 55.2082 89.9365 54.464H91.6328C91.6328 55.2375 91.917 55.8498 92.4853 56.3009C93.0595 56.7462 93.8242 56.9689 94.7793 56.9689C95.6699 56.9689 96.3525 56.7873 96.8271 56.424C97.3017 56.0607 97.539 55.5656 97.539 54.9386C97.539 54.3117 97.3193 53.8283 96.8798 53.4884C96.4404 53.1427 95.6435 52.8029 94.4892 52.4689ZM113.348 46.7648H109.235V58.173H107.556V46.7648H103.452V45.3761H113.348V46.7648ZM125.58 52.258H120.034V56.7931H126.476V58.173H118.346V45.3761H126.388V46.7648H120.034V50.8781H125.58V52.258ZM133.364 53.1632V58.173H131.677V45.3761H136.396C137.797 45.3761 138.893 45.7335 139.684 46.4484C140.48 47.1632 140.879 48.1095 140.879 49.2873C140.879 50.5294 140.489 51.4875 139.71 52.1613C138.936 52.8292 137.826 53.1632 136.379 53.1632H133.364ZM133.364 51.7834H136.396C137.299 51.7834 137.99 51.5724 138.471 51.1505C138.951 50.7228 139.191 50.1076 139.191 49.3048C139.191 48.5431 138.951 47.9337 138.471 47.4767C137.99 47.0197 137.331 46.7824 136.493 46.7648H133.364V51.7834Z" fill="white"/>
</g>
<defs>
<clipPath id="clip0">
<rect width="331" height="90" fill="white"/>
</clipPath>
</defs>
</svg>
